<svg id="svg" version="1.1" xmlns="http://www.w3.org/2000/svg" xmlns:xlink="http://www.w3.org/1999/xlink" width="400" height="284.2105263157895" viewBox="0, 0, 400,284.2105263157895"><g id="svgg"><path id="path0" d="M266.062 117.259 C 265.990 117.331,263.431 117.504,260.375 117.643 C 255.477 117.866,254.721 117.965,253.991 118.479 C 253.327 118.946,252.544 119.096,250.053 119.233 C 247.464 119.375,246.841 119.501,246.327 119.983 C 245.845 120.436,245.176 120.600,243.248 120.736 C 241.442 120.863,240.623 121.050,240.178 121.436 C 239.845 121.725,239.559 121.970,239.544 121.980 C 239.529 121.989,238.454 122.099,237.156 122.223 C 235.279 122.402,234.713 122.565,234.397 123.016 C 234.103 123.436,233.537 123.632,232.226 123.769 C 231.104 123.886,230.238 124.149,229.868 124.485 C 229.512 124.807,228.629 125.088,227.617 125.200 C 226.443 125.331,225.814 125.555,225.485 125.961 C 225.153 126.370,224.540 126.587,223.370 126.707 C 222.210 126.827,221.612 127.036,221.346 127.416 C 221.108 127.755,220.423 128.041,219.498 128.187 C 218.627 128.325,217.810 128.653,217.494 128.993 C 217.180 129.330,216.394 129.648,215.587 129.765 C 214.742 129.887,214.048 130.177,213.781 130.519 C 213.543 130.824,212.839 131.154,212.218 131.252 C 211.596 131.350,210.726 131.730,210.284 132.097 C 209.842 132.464,209.170 132.765,208.791 132.765 C 208.412 132.765,207.829 133.038,207.495 133.372 C 207.161 133.706,206.361 134.098,205.718 134.243 C 205.075 134.387,204.293 134.741,203.980 135.029 C 203.667 135.317,202.933 135.683,202.349 135.841 C 201.765 135.999,201.084 136.331,200.837 136.578 C 200.589 136.826,200.044 137.108,199.625 137.206 C 199.206 137.304,198.570 137.688,198.212 138.060 C 197.854 138.431,197.252 138.735,196.876 138.735 C 196.499 138.735,195.846 139.055,195.424 139.446 C 195.003 139.837,194.361 140.156,193.998 140.156 C 193.635 140.156,192.946 140.540,192.466 141.009 C 191.981 141.484,191.287 141.862,190.903 141.862 C 190.520 141.862,190.086 142.098,189.928 142.392 C 189.773 142.683,189.224 143.092,188.710 143.301 C 188.196 143.510,187.608 143.912,187.404 144.193 C 187.200 144.475,186.723 144.705,186.344 144.705 C 185.926 144.705,185.476 144.981,185.196 145.408 C 184.922 145.825,184.347 146.184,183.781 146.290 C 183.226 146.394,182.641 146.754,182.381 147.151 C 182.135 147.526,181.704 147.832,181.422 147.832 C 181.140 147.832,180.619 148.141,180.264 148.519 C 179.909 148.897,179.285 149.289,178.877 149.392 C 178.469 149.494,177.962 149.825,177.751 150.127 C 177.539 150.428,177.185 150.675,176.963 150.675 C 176.741 150.675,176.352 150.991,176.099 151.377 C 175.846 151.763,175.203 152.237,174.671 152.429 C 174.139 152.622,173.703 152.943,173.703 153.143 C 173.703 153.344,173.351 153.595,172.921 153.703 C 172.491 153.810,171.807 154.228,171.400 154.632 C 169.932 156.090,168.852 156.930,168.445 156.930 C 168.217 156.930,167.821 157.249,167.564 157.640 C 167.308 158.031,166.854 158.351,166.556 158.351 C 166.238 158.351,165.901 158.646,165.743 159.062 C 165.594 159.453,165.301 159.773,165.091 159.773 C 164.882 159.773,163.951 160.473,163.023 161.330 C 162.095 162.186,161.245 162.890,161.133 162.893 C 161.021 162.897,160.537 163.284,160.057 163.753 C 159.577 164.222,158.997 164.606,158.768 164.606 C 158.539 164.606,158.351 164.801,158.351 165.041 C 158.351 165.280,158.127 165.560,157.854 165.661 C 157.580 165.763,156.055 167.166,154.466 168.780 C 152.876 170.393,151.434 171.713,151.260 171.713 C 151.087 171.713,150.824 172.033,150.675 172.424 C 150.527 172.814,150.207 173.134,149.965 173.134 C 149.724 173.134,149.387 173.440,149.216 173.814 C 149.046 174.187,148.601 174.632,148.227 174.803 C 147.854 174.973,147.548 175.310,147.548 175.552 C 147.548 175.794,147.228 176.113,146.837 176.262 C 146.446 176.410,146.127 176.730,146.127 176.971 C 146.127 177.213,145.809 177.556,145.421 177.732 C 145.033 177.909,144.643 178.283,144.554 178.564 C 144.465 178.845,144.142 179.155,143.838 179.251 C 143.533 179.348,143.284 179.542,143.284 179.682 C 143.284 179.999,139.370 183.937,139.055 183.937 C 138.929 183.937,138.680 184.257,138.502 184.648 C 138.324 185.039,137.992 185.359,137.765 185.359 C 137.538 185.359,137.268 185.622,137.166 185.944 C 137.064 186.265,136.672 186.646,136.294 186.790 C 135.917 186.933,135.608 187.186,135.608 187.351 C 135.608 187.516,134.584 188.667,133.333 189.908 C 132.082 191.148,131.059 192.275,131.059 192.411 C 131.059 192.548,130.739 192.805,130.348 192.983 C 129.957 193.161,129.638 193.502,129.638 193.739 C 129.638 193.977,129.517 194.172,129.369 194.172 C 128.894 194.172,123.609 199.540,123.729 199.900 C 123.990 200.683,159.539 199.887,161.933 199.045 C 163.317 198.558,164.667 198.415,169.643 198.228 C 175.187 198.020,175.708 197.956,176.087 197.437 C 176.455 196.933,176.941 196.856,180.644 196.714 C 184.299 196.574,184.837 196.491,185.190 196.009 C 185.534 195.538,186.069 195.441,189.055 195.309 C 192.008 195.179,192.577 195.078,192.910 194.623 C 193.221 194.198,193.862 194.042,196.052 193.857 C 198.242 193.672,198.932 193.504,199.434 193.032 C 199.902 192.593,200.591 192.396,202.097 192.269 C 203.687 192.136,204.286 191.953,204.851 191.430 C 205.426 190.897,205.889 190.760,207.124 190.760 C 208.403 190.760,208.778 190.642,209.263 190.084 C 209.706 189.575,210.265 189.361,211.529 189.218 C 212.560 189.101,213.298 188.864,213.444 188.603 C 213.575 188.370,214.358 188.000,215.185 187.782 C 216.012 187.564,216.922 187.174,217.208 186.915 C 217.494 186.656,218.278 186.321,218.950 186.170 C 219.622 186.019,220.399 185.653,220.675 185.356 C 220.951 185.059,221.636 184.731,222.196 184.625 C 222.757 184.520,223.283 184.257,223.367 184.040 C 223.450 183.823,224.083 183.503,224.775 183.329 C 225.466 183.155,226.193 182.782,226.390 182.500 C 226.587 182.218,227.098 181.900,227.526 181.793 C 227.953 181.685,228.426 181.367,228.577 181.085 C 228.728 180.802,229.332 180.414,229.920 180.221 C 230.507 180.028,231.155 179.634,231.359 179.345 C 231.564 179.056,231.879 178.820,232.059 178.820 C 232.240 178.820,232.713 178.493,233.109 178.092 C 234.296 176.895,236.275 175.409,236.682 175.409 C 236.891 175.409,237.139 175.166,237.233 174.868 C 237.328 174.571,237.720 174.249,238.105 174.152 C 238.491 174.055,238.806 173.784,238.806 173.549 C 238.806 173.314,239.123 172.978,239.511 172.801 C 239.899 172.624,240.285 172.262,240.370 171.997 C 240.454 171.732,240.840 171.370,241.228 171.194 C 241.616 171.017,241.933 170.674,241.933 170.433 C 241.933 170.191,242.253 169.871,242.644 169.723 C 243.035 169.574,243.355 169.260,243.355 169.026 C 243.355 168.791,243.674 168.389,244.065 168.133 C 244.456 167.877,244.776 167.475,244.776 167.240 C 244.776 166.806,245.878 165.334,247.184 164.026 C 247.579 163.629,247.903 163.074,247.903 162.791 C 247.903 162.509,248.152 162.213,248.456 162.134 C 248.782 162.048,249.084 161.641,249.195 161.139 C 249.298 160.671,249.678 160.030,250.041 159.715 C 250.404 159.399,250.784 158.809,250.886 158.404 C 250.987 157.998,251.312 157.496,251.608 157.290 C 251.903 157.083,252.229 156.466,252.332 155.919 C 252.434 155.372,252.758 154.796,253.052 154.639 C 253.375 154.466,253.658 153.900,253.769 153.206 C 253.887 152.470,254.180 151.909,254.587 151.642 C 255.014 151.363,255.275 150.837,255.381 150.043 C 255.478 149.320,255.767 148.687,256.125 148.417 C 256.513 148.123,256.773 147.497,256.899 146.553 C 257.026 145.602,257.310 144.924,257.756 144.505 C 258.242 144.048,258.422 143.568,258.422 142.726 C 258.422 141.925,258.596 141.424,258.989 141.087 C 259.341 140.786,259.626 140.074,259.740 139.216 C 259.844 138.430,260.195 137.503,260.551 137.074 C 260.910 136.643,261.259 135.716,261.366 134.913 C 261.477 134.082,261.799 133.247,262.153 132.870 C 262.509 132.491,262.812 131.700,262.900 130.924 C 262.996 130.074,263.240 129.481,263.598 129.230 C 263.972 128.968,264.219 128.331,264.366 127.245 C 264.512 126.171,264.786 125.456,265.198 125.071 C 265.537 124.756,265.814 124.192,265.814 123.817 C 265.814 122.940,266.299 121.667,266.783 121.274 C 267.196 120.939,267.744 118.428,267.580 117.626 C 267.487 117.175,266.407 116.914,266.062 117.259 " stroke="none" fill="#d31b2a" fill-rule="evenodd"></path><path id="path1" d="M271.073 79.895 C 265.122 80.040,263.078 80.187,261.976 80.548 C 261.194 80.804,258.907 81.154,256.894 81.326 C 254.369 81.541,252.914 81.804,252.203 82.172 C 251.637 82.465,250.277 82.787,249.183 82.887 C 247.888 83.005,246.910 83.268,246.384 83.638 C 245.940 83.951,244.883 84.301,244.036 84.416 C 243.113 84.541,242.242 84.859,241.860 85.210 C 241.509 85.532,240.813 85.882,240.312 85.988 C 239.811 86.093,239.107 86.409,238.748 86.690 C 238.389 86.970,237.775 87.299,237.385 87.420 C 236.994 87.541,236.312 87.942,235.870 88.312 C 235.428 88.681,234.895 88.984,234.686 88.984 C 234.477 88.984,234.007 89.236,233.642 89.544 C 232.835 90.226,231.032 91.669,229.547 92.822 C 228.943 93.291,228.078 93.994,227.626 94.385 C 226.603 95.270,212.593 109.253,211.217 110.764 C 210.663 111.372,209.704 112.340,209.085 112.916 C 208.466 113.492,205.977 116.028,203.554 118.552 C 201.130 121.075,197.580 124.689,195.665 126.581 C 193.749 128.474,192.182 130.128,192.182 130.256 C 192.182 130.689,193.822 130.503,193.995 130.051 C 194.088 129.810,194.605 129.427,195.145 129.202 C 196.221 128.752,197.923 127.677,198.958 126.793 C 199.323 126.481,199.867 126.226,200.166 126.226 C 200.466 126.226,200.990 125.938,201.331 125.586 C 201.921 124.979,203.206 124.196,205.140 123.268 C 205.621 123.037,206.174 122.656,206.368 122.423 C 206.562 122.189,207.127 121.912,207.624 121.808 C 208.122 121.703,208.849 121.325,209.240 120.969 C 209.630 120.612,210.270 120.224,210.661 120.107 C 211.052 119.990,211.733 119.591,212.175 119.222 C 212.617 118.852,213.144 118.550,213.345 118.550 C 213.547 118.550,214.017 118.315,214.390 118.027 C 214.762 117.739,215.489 117.360,216.005 117.184 C 216.520 117.008,217.273 116.604,217.678 116.286 C 218.082 115.968,218.633 115.707,218.901 115.707 C 219.169 115.707,219.951 115.326,220.640 114.859 C 221.328 114.393,222.160 114.009,222.489 114.007 C 222.818 114.004,223.432 113.682,223.854 113.291 C 224.350 112.831,224.952 112.580,225.559 112.580 C 226.167 112.580,226.769 112.329,227.265 111.869 C 227.718 111.450,228.371 111.158,228.859 111.158 C 229.314 111.158,229.915 110.915,230.195 110.618 C 230.475 110.320,231.279 109.925,231.983 109.739 C 232.687 109.553,233.646 109.167,234.115 108.882 C 234.584 108.597,235.480 108.277,236.105 108.171 C 236.731 108.065,237.592 107.732,238.019 107.431 C 238.446 107.131,239.406 106.808,240.151 106.714 C 240.897 106.621,241.955 106.251,242.502 105.892 C 243.049 105.534,244.057 105.151,244.742 105.041 C 245.426 104.931,246.386 104.614,246.874 104.337 C 247.362 104.059,248.439 103.748,249.267 103.645 C 250.095 103.543,251.247 103.213,251.826 102.912 C 252.405 102.611,253.646 102.282,254.584 102.180 C 255.522 102.078,256.716 101.752,257.237 101.456 C 257.863 101.099,259.114 100.837,260.932 100.682 C 262.587 100.541,264.066 100.248,264.648 99.946 C 265.306 99.604,266.528 99.399,268.486 99.302 C 270.860 99.184,275.723 98.150,276.287 97.643 C 276.340 97.596,276.507 97.005,276.659 96.331 C 276.810 95.656,277.107 94.911,277.319 94.674 C 277.531 94.437,277.894 93.513,278.126 92.620 C 278.357 91.728,278.816 90.655,279.145 90.237 C 279.475 89.818,279.744 89.139,279.744 88.728 C 279.744 88.317,279.981 87.534,280.271 86.989 C 280.561 86.444,280.956 85.333,281.149 84.520 C 281.342 83.707,281.677 82.895,281.894 82.715 C 283.462 81.413,282.538 79.582,280.349 79.655 C 279.469 79.684,275.295 79.792,271.073 79.895 M191.527 131.171 C 191.411 131.467,191.383 131.776,191.465 131.858 C 191.724 132.117,191.952 131.692,191.843 131.152 C 191.744 130.658,191.729 130.658,191.527 131.171 " stroke="none" fill="#f6b30d" fill-rule="evenodd"></path><path id="path2" d="M0.000 142.146 L 0.000 284.293 200.000 284.293 L 400.000 284.293 400.000 142.146 L 400.000 0.000 200.000 0.000 L 0.000 0.000 0.000 142.146 M282.679 79.902 C 283.145 80.566,282.849 82.534,282.169 83.294 C 281.957 83.530,281.590 84.472,281.353 85.385 C 281.115 86.299,280.721 87.269,280.475 87.540 C 280.229 87.811,280.028 88.356,280.028 88.750 C 280.028 89.145,279.707 90.072,279.314 90.811 C 278.921 91.550,278.466 92.751,278.303 93.479 C 278.140 94.207,277.833 94.996,277.622 95.234 C 277.411 95.471,277.098 96.193,276.926 96.839 C 276.488 98.482,274.958 99.113,270.460 99.503 C 268.608 99.664,266.517 99.981,265.814 100.208 C 265.110 100.435,263.511 100.746,262.260 100.900 C 261.009 101.053,259.410 101.386,258.706 101.640 C 258.003 101.894,256.671 102.226,255.747 102.379 C 254.823 102.532,253.532 102.900,252.878 103.198 C 252.225 103.496,250.934 103.866,250.010 104.020 C 249.086 104.174,247.823 104.564,247.204 104.887 C 246.584 105.209,245.753 105.473,245.356 105.474 C 244.959 105.474,243.866 105.858,242.928 106.326 C 241.990 106.793,240.918 107.177,240.545 107.177 C 240.173 107.178,239.465 107.427,238.973 107.732 C 238.480 108.036,237.443 108.427,236.669 108.601 C 235.895 108.774,235.045 109.113,234.780 109.352 C 234.515 109.592,233.759 109.909,233.101 110.057 C 232.443 110.205,231.585 110.577,231.195 110.884 C 230.804 111.192,230.278 111.443,230.026 111.444 C 229.773 111.444,228.799 111.828,227.861 112.296 C 226.923 112.764,225.956 113.147,225.713 113.147 C 225.469 113.148,224.837 113.468,224.307 113.859 C 223.777 114.250,223.138 114.570,222.886 114.570 C 222.634 114.570,221.996 114.888,221.469 115.277 C 220.941 115.666,220.093 116.063,219.584 116.158 C 219.075 116.254,218.441 116.573,218.174 116.867 C 217.908 117.161,217.268 117.481,216.753 117.578 C 216.237 117.674,215.600 117.992,215.336 118.283 C 215.072 118.575,214.392 118.960,213.825 119.139 C 213.257 119.319,212.665 119.624,212.509 119.817 C 212.353 120.010,211.649 120.450,210.945 120.794 C 209.023 121.736,207.718 122.463,207.314 122.817 C 207.115 122.991,206.476 123.330,205.893 123.570 C 205.310 123.810,204.577 124.235,204.264 124.515 C 203.952 124.795,203.376 125.121,202.985 125.239 C 202.594 125.358,202.107 125.692,201.903 125.983 C 201.699 126.273,201.364 126.510,201.160 126.510 C 200.956 126.510,200.306 126.894,199.716 127.363 C 199.125 127.832,198.519 128.216,198.367 128.216 C 198.216 128.216,197.738 128.504,197.305 128.856 C 196.872 129.208,196.090 129.751,195.566 130.064 C 193.625 131.223,190.993 132.936,190.541 133.334 C 190.342 133.509,189.734 133.838,189.190 134.065 C 188.647 134.292,188.202 134.591,188.202 134.728 C 188.202 135.143,187.276 135.364,186.946 135.028 C 186.724 134.802,186.817 134.569,187.278 134.192 C 187.630 133.904,187.918 133.563,187.918 133.434 C 187.918 133.305,190.599 130.511,193.877 127.225 C 197.155 123.939,205.712 115.355,212.893 108.149 C 226.276 94.721,231.208 90.121,232.225 90.121 C 232.387 90.121,232.686 89.883,232.891 89.593 C 233.095 89.303,233.774 88.790,234.399 88.453 C 235.025 88.116,235.729 87.721,235.963 87.574 C 236.434 87.279,237.570 86.702,239.090 85.984 C 239.638 85.725,240.661 85.223,241.365 84.868 C 242.068 84.512,243.156 84.131,243.781 84.020 C 244.407 83.909,245.302 83.587,245.771 83.304 C 246.240 83.020,247.328 82.698,248.188 82.587 C 249.048 82.476,250.455 82.140,251.315 81.839 C 252.175 81.539,254.148 81.162,255.700 81.001 C 257.252 80.840,259.363 80.508,260.391 80.264 C 264.432 79.303,282.060 79.017,282.679 79.902 M269.066 115.972 C 269.612 116.576,269.476 118.039,268.799 118.834 C 268.600 119.069,268.294 119.937,268.121 120.764 C 267.947 121.591,267.561 122.614,267.263 123.038 C 266.964 123.462,266.633 124.317,266.527 124.937 C 266.420 125.557,266.105 126.389,265.825 126.785 C 265.545 127.181,265.224 127.953,265.111 128.500 C 264.998 129.048,264.661 129.921,264.361 130.442 C 264.061 130.963,263.682 131.984,263.519 132.712 C 263.356 133.440,263.049 134.229,262.837 134.466 C 262.625 134.703,262.258 135.644,262.021 136.558 C 261.784 137.472,261.399 138.431,261.167 138.690 C 260.935 138.949,260.658 139.673,260.552 140.299 C 260.446 140.924,260.118 141.779,259.822 142.199 C 259.527 142.618,259.152 143.558,258.989 144.287 C 258.825 145.016,258.449 146.080,258.152 146.652 C 256.965 148.937,256.148 150.746,256.148 151.090 C 256.148 151.289,255.885 151.785,255.565 152.193 C 255.244 152.601,254.781 153.523,254.535 154.243 C 254.290 154.963,253.921 155.617,253.714 155.696 C 253.508 155.775,253.259 156.207,253.160 156.656 C 253.062 157.104,252.707 157.821,252.371 158.248 C 252.035 158.674,251.564 159.371,251.324 159.796 C 250.469 161.311,249.314 162.900,249.068 162.900 C 248.930 162.900,248.743 163.188,248.651 163.539 C 248.468 164.238,244.960 168.870,243.696 170.080 C 243.493 170.275,243.174 170.600,242.986 170.803 C 242.798 171.005,242.477 171.325,242.273 171.513 C 242.069 171.701,241.109 172.600,240.141 173.510 C 239.172 174.421,238.124 175.388,237.811 175.660 C 235.348 177.799,233.698 179.093,232.941 179.481 C 232.452 179.731,231.976 180.133,231.884 180.373 C 231.792 180.614,231.538 180.810,231.320 180.810 C 231.102 180.810,230.441 181.194,229.851 181.663 C 229.260 182.132,228.623 182.516,228.434 182.516 C 228.245 182.516,227.877 182.752,227.616 183.041 C 227.355 183.330,226.646 183.714,226.042 183.895 C 225.438 184.076,224.790 184.409,224.602 184.635 C 224.415 184.861,223.792 185.196,223.218 185.379 C 222.644 185.563,221.919 185.940,221.606 186.216 C 221.294 186.493,220.628 186.806,220.127 186.911 C 219.626 187.017,218.908 187.346,218.532 187.643 C 218.155 187.939,217.308 188.302,216.650 188.450 C 215.992 188.598,215.236 188.915,214.972 189.155 C 214.707 189.395,213.894 189.725,213.167 189.888 C 212.439 190.051,211.418 190.430,210.897 190.730 C 210.376 191.030,209.375 191.365,208.671 191.474 C 207.967 191.584,207.008 191.903,206.539 192.184 C 206.070 192.465,204.833 192.825,203.791 192.984 C 202.750 193.143,201.571 193.487,201.173 193.748 C 200.775 194.009,199.531 194.338,198.410 194.478 C 197.288 194.619,196.227 194.847,196.053 194.985 C 195.643 195.308,193.344 195.795,191.233 196.007 C 190.320 196.098,188.849 196.416,187.964 196.712 C 187.078 197.009,185.139 197.340,183.653 197.448 C 182.168 197.556,180.697 197.801,180.384 197.991 C 179.774 198.363,175.706 198.899,171.616 199.145 C 170.234 199.228,168.891 199.409,168.631 199.546 C 167.880 199.944,162.665 200.386,156.503 200.575 C 152.957 200.683,150.015 200.923,148.685 201.211 C 145.281 201.949,122.023 201.932,121.567 201.191 C 121.307 200.767,121.389 200.557,122.033 199.996 C 122.463 199.622,122.814 199.235,122.814 199.135 C 122.814 198.875,126.802 195.025,127.072 195.025 C 127.196 195.025,127.366 194.760,127.451 194.435 C 127.536 194.111,127.866 193.777,128.186 193.694 C 128.505 193.610,128.845 193.293,128.942 192.988 C 129.038 192.683,129.426 192.316,129.804 192.173 C 130.182 192.029,130.490 191.780,130.490 191.618 C 130.490 191.389,133.453 188.167,135.329 186.354 C 135.491 186.198,135.780 185.896,135.971 185.684 C 136.162 185.472,136.815 184.832,137.423 184.262 C 138.420 183.327,140.779 180.963,143.623 178.048 C 144.710 176.934,145.156 176.491,145.785 175.898 C 145.988 175.707,146.308 175.383,146.495 175.179 C 148.556 172.937,153.748 168.017,154.054 168.017 C 154.229 168.017,154.371 167.870,154.371 167.690 C 154.371 167.381,155.860 165.897,157.753 164.321 C 158.222 163.930,159.220 163.038,159.971 162.339 C 161.815 160.622,164.083 158.920,164.527 158.920 C 164.726 158.920,164.890 158.731,164.890 158.501 C 164.890 158.270,165.258 157.891,165.708 157.658 C 166.158 157.425,166.602 157.038,166.694 156.798 C 166.787 156.558,167.038 156.361,167.253 156.361 C 167.469 156.361,167.888 156.092,168.186 155.762 C 168.484 155.433,169.208 154.919,169.794 154.619 C 170.380 154.320,170.860 153.947,170.860 153.791 C 170.860 153.634,171.206 153.349,171.630 153.157 C 172.053 152.965,172.661 152.572,172.980 152.284 C 174.205 151.180,175.814 150.087,176.451 149.927 C 176.816 149.836,177.114 149.579,177.114 149.358 C 177.114 149.137,177.466 148.822,177.896 148.659 C 178.326 148.496,178.934 148.130,179.247 147.846 C 179.559 147.562,180.107 147.240,180.464 147.132 C 180.821 147.024,181.423 146.625,181.801 146.247 C 182.180 145.868,182.668 145.558,182.885 145.558 C 183.103 145.558,183.508 145.307,183.786 145.000 C 184.063 144.693,184.723 144.299,185.251 144.125 C 185.780 143.951,186.212 143.688,186.212 143.541 C 186.212 143.394,186.692 143.055,187.278 142.788 C 187.864 142.520,188.706 142.010,189.148 141.655 C 189.590 141.300,190.078 141.009,190.233 141.009 C 190.387 141.009,190.933 140.689,191.446 140.299 C 191.958 139.908,192.580 139.588,192.827 139.588 C 193.074 139.588,193.646 139.276,194.098 138.896 C 194.551 138.515,195.283 138.112,195.725 138.001 C 196.167 137.891,196.763 137.566,197.049 137.280 C 197.335 136.993,197.924 136.675,198.358 136.573 C 198.792 136.470,199.403 136.158,199.716 135.880 C 200.028 135.602,200.815 135.233,201.463 135.061 C 202.112 134.889,202.713 134.565,202.799 134.340 C 202.885 134.116,203.502 133.785,204.169 133.605 C 204.836 133.425,205.680 133.044,206.045 132.757 C 206.409 132.470,207.099 132.149,207.578 132.044 C 208.056 131.939,208.900 131.547,209.452 131.172 C 210.004 130.797,210.741 130.490,211.089 130.490 C 211.437 130.490,212.066 130.219,212.488 129.888 C 212.909 129.556,213.775 129.168,214.413 129.025 C 215.051 128.881,215.874 128.527,216.241 128.238 C 216.609 127.948,217.366 127.626,217.922 127.522 C 218.479 127.418,219.522 127.019,220.241 126.637 C 220.960 126.255,221.802 125.942,222.113 125.942 C 222.423 125.942,223.093 125.684,223.603 125.369 C 224.112 125.054,225.279 124.659,226.195 124.491 C 227.111 124.324,228.053 124.016,228.287 123.808 C 228.522 123.600,229.545 123.281,230.561 123.099 C 231.578 122.917,232.614 122.583,232.865 122.358 C 233.116 122.133,234.203 121.780,235.282 121.574 C 236.360 121.368,237.641 120.993,238.127 120.741 C 238.614 120.488,239.966 120.163,241.132 120.018 C 242.298 119.874,243.659 119.544,244.158 119.287 C 244.656 119.029,246.119 118.690,247.408 118.534 C 248.697 118.377,250.249 118.055,250.857 117.817 C 251.466 117.580,253.832 117.200,256.117 116.973 C 258.401 116.746,260.782 116.412,261.407 116.230 C 262.033 116.049,263.824 115.813,265.387 115.706 C 266.951 115.599,268.306 115.492,268.399 115.467 C 268.492 115.443,268.792 115.670,269.066 115.972 " stroke="none" fill="#fcfbfb" fill-rule="evenodd"></path><path id="path3" d="M264.534 116.736 C 263.284 116.957,260.533 117.258,258.422 117.403 C 256.124 117.562,253.900 117.887,252.878 118.213 C 251.940 118.513,250.162 118.846,248.927 118.954 C 247.692 119.062,246.221 119.383,245.658 119.669 C 245.095 119.954,243.578 120.328,242.288 120.500 C 240.997 120.672,239.632 121.015,239.254 121.263 C 238.875 121.511,237.820 121.787,236.909 121.877 C 235.991 121.968,234.745 122.326,234.115 122.681 C 233.490 123.033,232.338 123.409,231.557 123.517 C 230.775 123.624,229.851 123.894,229.503 124.117 C 229.156 124.340,228.197 124.664,227.371 124.837 C 226.546 125.010,225.487 125.377,225.018 125.654 C 224.549 125.930,223.657 126.247,223.036 126.358 C 222.416 126.469,221.392 126.854,220.762 127.214 C 220.132 127.574,219.149 127.950,218.579 128.050 C 218.008 128.149,217.241 128.467,216.873 128.756 C 216.506 129.044,215.672 129.370,215.022 129.480 C 214.371 129.589,213.616 129.925,213.343 130.227 C 213.070 130.528,212.629 130.775,212.363 130.775 C 212.096 130.775,211.159 131.158,210.280 131.628 C 209.401 132.097,208.505 132.480,208.290 132.480 C 208.074 132.480,207.446 132.787,206.893 133.162 C 206.341 133.537,205.507 133.927,205.041 134.030 C 204.574 134.132,203.768 134.529,203.249 134.912 C 202.730 135.295,202.141 135.608,201.939 135.608 C 201.737 135.608,200.514 136.194,199.222 136.910 C 197.930 137.627,196.489 138.400,196.020 138.629 C 195.551 138.858,194.399 139.479,193.461 140.009 C 192.523 140.539,191.309 141.187,190.763 141.450 C 190.217 141.712,189.408 142.232,188.964 142.605 C 188.521 142.978,187.996 143.284,187.798 143.284 C 187.599 143.284,187.206 143.539,186.923 143.852 C 186.640 144.165,186.253 144.421,186.065 144.421 C 185.876 144.421,185.238 144.805,184.648 145.274 C 184.058 145.743,183.412 146.127,183.212 146.127 C 183.012 146.127,182.550 146.382,182.185 146.695 C 181.153 147.578,178.998 148.959,178.642 148.964 C 178.465 148.967,178.148 149.179,177.935 149.435 C 177.587 149.854,176.858 150.385,174.589 151.874 C 173.868 152.346,173.557 152.579,171.628 154.088 C 168.901 156.221,168.312 156.645,168.083 156.645 C 167.945 156.645,167.531 156.965,167.164 157.356 C 166.797 157.747,166.399 158.067,166.280 158.067 C 166.160 158.067,165.703 158.401,165.263 158.809 C 164.823 159.218,162.736 160.958,160.625 162.678 C 157.571 165.165,131.554 190.866,122.490 200.349 C 121.950 200.914,121.936 201.003,122.355 201.164 C 123.211 201.492,142.236 201.142,142.880 200.785 C 143.254 200.578,146.026 200.394,150.414 200.285 C 157.510 200.108,163.098 199.700,164.206 199.279 C 164.548 199.149,167.176 198.895,170.047 198.715 C 173.304 198.510,175.628 198.230,176.228 197.972 C 176.757 197.743,179.054 197.362,181.332 197.123 C 183.610 196.885,185.928 196.496,186.483 196.258 C 187.037 196.020,188.387 195.720,189.481 195.592 C 191.415 195.364,191.388 195.359,188.534 195.404 C 185.986 195.445,185.543 195.524,185.193 196.003 C 184.836 196.492,184.314 196.574,180.644 196.714 C 176.941 196.856,176.455 196.933,176.087 197.437 C 175.708 197.956,175.187 198.020,169.643 198.228 C 164.667 198.415,163.317 198.558,161.933 199.045 C 159.539 199.887,123.990 200.683,123.729 199.900 C 123.609 199.540,128.894 194.172,129.369 194.172 C 129.517 194.172,129.638 193.977,129.638 193.739 C 129.638 193.502,129.957 193.161,130.348 192.983 C 130.739 192.805,131.059 192.548,131.059 192.411 C 131.059 192.275,132.082 191.148,133.333 189.908 C 134.584 188.667,135.608 187.516,135.608 187.351 C 135.608 187.186,135.917 186.933,136.294 186.790 C 136.672 186.646,137.064 186.265,137.166 185.944 C 137.268 185.622,137.538 185.359,137.765 185.359 C 137.992 185.359,138.324 185.039,138.502 184.648 C 138.680 184.257,138.929 183.937,139.055 183.937 C 139.370 183.937,143.284 179.999,143.284 179.682 C 143.284 179.542,143.533 179.348,143.838 179.251 C 144.142 179.155,144.465 178.845,144.554 178.564 C 144.643 178.283,145.033 177.909,145.421 177.732 C 145.809 177.556,146.127 177.213,146.127 176.971 C 146.127 176.730,146.446 176.410,146.837 176.262 C 147.228 176.113,147.548 175.794,147.548 175.552 C 147.548 175.310,147.854 174.973,148.227 174.803 C 148.601 174.632,149.046 174.187,149.216 173.814 C 149.387 173.440,149.724 173.134,149.965 173.134 C 150.207 173.134,150.527 172.814,150.675 172.424 C 150.824 172.033,151.087 171.713,151.260 171.713 C 151.434 171.713,152.876 170.393,154.466 168.780 C 156.055 167.166,157.580 165.763,157.854 165.661 C 158.127 165.560,158.351 165.280,158.351 165.041 C 158.351 164.801,158.539 164.606,158.768 164.606 C 158.997 164.606,159.577 164.222,160.057 163.753 C 160.537 163.284,161.021 162.897,161.133 162.893 C 161.245 162.890,162.095 162.186,163.023 161.330 C 163.951 160.473,164.882 159.773,165.091 159.773 C 165.301 159.773,165.594 159.453,165.743 159.062 C 165.901 158.646,166.238 158.351,166.556 158.351 C 166.854 158.351,167.308 158.031,167.564 157.640 C 167.821 157.249,168.217 156.930,168.445 156.930 C 168.852 156.930,169.932 156.090,171.400 154.632 C 171.807 154.228,172.491 153.810,172.921 153.703 C 173.351 153.595,173.703 153.344,173.703 153.143 C 173.703 152.943,174.139 152.622,174.671 152.429 C 175.203 152.237,175.846 151.763,176.099 151.377 C 176.352 150.991,176.741 150.675,176.963 150.675 C 177.185 150.675,177.539 150.428,177.751 150.127 C 177.962 149.825,178.469 149.494,178.877 149.392 C 179.285 149.289,179.909 148.897,180.264 148.519 C 180.619 148.141,181.140 147.832,181.422 147.832 C 181.704 147.832,182.135 147.526,182.381 147.151 C 182.641 146.754,183.226 146.394,183.781 146.290 C 184.347 146.184,184.922 145.825,185.196 145.408 C 185.476 144.981,185.926 144.705,186.344 144.705 C 186.723 144.705,187.200 144.475,187.404 144.193 C 187.608 143.912,188.196 143.510,188.710 143.301 C 189.224 143.092,189.773 142.683,189.928 142.392 C 190.086 142.098,190.520 141.862,190.903 141.862 C 191.287 141.862,191.981 141.484,192.466 141.009 C 192.946 140.540,193.635 140.156,193.998 140.156 C 194.361 140.156,195.003 139.837,195.424 139.446 C 195.846 139.055,196.499 138.735,196.876 138.735 C 197.252 138.735,197.854 138.431,198.212 138.060 C 198.570 137.688,199.206 137.304,199.625 137.206 C 200.044 137.108,200.589 136.826,200.837 136.578 C 201.084 136.331,201.765 135.999,202.349 135.841 C 202.933 135.683,203.667 135.317,203.980 135.029 C 204.293 134.741,205.075 134.387,205.718 134.243 C 206.361 134.098,207.161 133.706,207.495 133.372 C 207.829 133.038,208.412 132.765,208.791 132.765 C 209.170 132.765,209.842 132.464,210.284 132.097 C 210.726 131.730,211.596 131.350,212.218 131.252 C 212.839 131.154,213.543 130.824,213.781 130.519 C 214.048 130.177,214.742 129.887,215.587 129.765 C 216.394 129.648,217.180 129.330,217.494 128.993 C 217.810 128.653,218.627 128.325,219.498 128.187 C 220.423 128.041,221.108 127.755,221.346 127.416 C 221.612 127.036,222.210 126.827,223.370 126.707 C 224.540 126.587,225.153 126.370,225.485 125.961 C 225.814 125.555,226.443 125.331,227.617 125.200 C 228.629 125.088,229.512 124.807,229.868 124.485 C 230.238 124.149,231.104 123.886,232.226 123.769 C 233.537 123.632,234.103 123.436,234.397 123.016 C 234.713 122.565,235.279 122.402,237.156 122.223 C 238.454 122.099,239.529 121.989,239.544 121.980 C 239.559 121.970,239.845 121.725,240.178 121.436 C 240.623 121.050,241.442 120.863,243.248 120.736 C 245.176 120.600,245.845 120.436,246.327 119.983 C 246.841 119.501,247.464 119.375,250.053 119.233 C 252.545 119.096,253.327 118.946,253.991 118.479 C 254.714 117.970,255.458 117.867,259.819 117.670 C 262.569 117.546,265.415 117.363,266.144 117.263 C 267.283 117.108,267.484 117.155,267.575 117.603 C 267.743 118.424,267.201 120.935,266.783 121.274 C 266.299 121.667,265.814 122.940,265.814 123.817 C 265.814 124.192,265.537 124.756,265.198 125.071 C 264.786 125.456,264.512 126.171,264.366 127.245 C 264.219 128.331,263.972 128.968,263.598 129.230 C 263.240 129.481,262.996 130.074,262.900 130.924 C 262.812 131.700,262.509 132.491,262.153 132.870 C 261.799 133.247,261.477 134.082,261.366 134.913 C 261.259 135.716,260.910 136.643,260.551 137.074 C 260.195 137.503,259.844 138.430,259.740 139.216 C 259.626 140.074,259.341 140.786,258.989 141.087 C 258.596 141.424,258.422 141.925,258.422 142.726 C 258.422 143.568,258.242 144.048,257.756 144.505 C 257.310 144.924,257.026 145.602,256.899 146.553 C 256.773 147.497,256.513 148.123,256.125 148.417 C 255.767 148.687,255.478 149.320,255.381 150.043 C 255.275 150.837,255.014 151.363,254.587 151.642 C 254.180 151.909,253.887 152.470,253.769 153.206 C 253.658 153.900,253.375 154.466,253.052 154.639 C 252.758 154.796,252.434 155.372,252.332 155.919 C 252.229 156.466,251.903 157.083,251.608 157.290 C 251.312 157.496,250.987 157.998,250.886 158.404 C 250.784 158.809,250.404 159.399,250.041 159.715 C 249.678 160.030,249.298 160.671,249.195 161.139 C 249.084 161.641,248.782 162.048,248.456 162.134 C 248.152 162.213,247.903 162.509,247.903 162.791 C 247.903 163.074,247.579 163.629,247.184 164.026 C 245.878 165.334,244.776 166.806,244.776 167.240 C 244.776 167.475,244.456 167.877,244.065 168.133 C 243.674 168.389,243.355 168.791,243.355 169.026 C 243.355 169.260,243.035 169.574,242.644 169.723 C 242.253 169.871,241.933 170.191,241.933 170.433 C 241.933 170.674,241.616 171.017,241.228 171.194 C 240.840 171.370,240.454 171.732,240.370 171.997 C 240.285 172.262,239.899 172.624,239.511 172.801 C 239.123 172.978,238.806 173.314,238.806 173.549 C 238.806 173.784,238.491 174.055,238.105 174.152 C 237.720 174.249,237.328 174.571,237.233 174.868 C 237.139 175.166,236.891 175.409,236.682 175.409 C 236.275 175.409,234.296 176.895,233.109 178.092 C 232.713 178.493,232.240 178.820,232.059 178.820 C 231.879 178.820,231.564 179.056,231.359 179.345 C 231.155 179.634,230.507 180.028,229.920 180.221 C 229.332 180.414,228.728 180.802,228.577 181.085 C 228.426 181.367,227.953 181.685,227.526 181.793 C 227.098 181.900,226.587 182.218,226.390 182.500 C 226.193 182.782,225.466 183.155,224.775 183.329 C 224.083 183.503,223.450 183.823,223.367 184.040 C 223.283 184.257,222.757 184.520,222.196 184.625 C 221.636 184.731,220.951 185.059,220.675 185.356 C 220.399 185.653,219.622 186.019,218.950 186.170 C 218.278 186.321,217.494 186.656,217.208 186.915 C 216.922 187.174,216.012 187.564,215.185 187.782 C 214.358 188.000,213.575 188.370,213.444 188.603 C 213.298 188.864,212.560 189.101,211.529 189.218 C 210.265 189.361,209.706 189.575,209.263 190.084 C 208.778 190.642,208.403 190.760,207.124 190.760 C 205.889 190.760,205.426 190.897,204.851 191.430 C 204.286 191.953,203.687 192.136,202.097 192.269 C 200.591 192.396,199.902 192.593,199.434 193.032 C 198.931 193.505,198.241 193.672,196.023 193.859 C 193.915 194.037,193.180 194.206,192.983 194.559 C 192.839 194.815,192.505 195.035,192.239 195.047 C 191.946 195.061,191.895 195.126,192.109 195.212 C 192.303 195.291,193.198 195.104,194.099 194.797 C 194.999 194.490,196.489 194.149,197.410 194.038 C 198.332 193.927,199.547 193.598,200.111 193.307 C 200.675 193.016,201.905 192.651,202.843 192.497 C 203.781 192.343,205.055 191.953,205.675 191.631 C 206.294 191.309,207.203 191.045,207.694 191.045 C 208.185 191.045,209.160 190.740,209.861 190.367 C 210.562 189.994,211.661 189.600,212.304 189.492 C 212.946 189.383,213.617 189.119,213.796 188.904 C 213.974 188.689,214.839 188.304,215.718 188.048 C 216.596 187.793,217.608 187.354,217.966 187.072 C 218.323 186.791,219.052 186.478,219.585 186.379 C 220.118 186.279,220.705 186.015,220.890 185.792 C 221.074 185.570,221.695 185.238,222.269 185.054 C 222.843 184.871,223.568 184.494,223.881 184.217 C 224.193 183.941,224.856 183.629,225.353 183.523 C 225.851 183.418,226.427 183.129,226.633 182.880 C 226.839 182.631,227.392 182.250,227.861 182.033 C 228.330 181.816,229.161 181.328,229.709 180.949 C 230.256 180.569,231.127 179.967,231.645 179.611 C 232.162 179.254,233.122 178.548,233.777 178.042 C 234.952 177.134,235.285 176.874,237.527 175.114 C 239.059 173.911,244.743 168.041,245.629 166.747 C 246.020 166.176,246.724 165.212,247.193 164.606 C 247.662 163.999,248.337 163.079,248.694 162.561 C 249.050 162.044,249.655 161.173,250.037 160.625 C 250.419 160.078,250.871 159.311,251.042 158.920 C 251.213 158.529,251.585 157.953,251.870 157.640 C 252.154 157.328,252.480 156.752,252.594 156.361 C 252.708 155.970,253.031 155.394,253.312 155.082 C 253.593 154.769,253.963 153.983,254.135 153.334 C 254.307 152.686,254.632 152.085,254.857 151.998 C 255.081 151.912,255.412 151.296,255.592 150.629 C 255.771 149.962,256.162 149.106,256.460 148.728 C 256.757 148.349,257.001 147.833,257.002 147.581 C 257.002 147.328,257.386 146.354,257.854 145.416 C 258.321 144.478,258.705 143.469,258.705 143.175 C 258.706 142.881,258.947 142.241,259.240 141.754 C 259.534 141.266,259.929 140.202,260.118 139.389 C 260.307 138.575,260.632 137.770,260.839 137.598 C 261.046 137.426,261.363 136.669,261.543 135.917 C 261.724 135.164,262.183 133.933,262.563 133.182 C 262.944 132.430,263.255 131.535,263.255 131.191 C 263.255 130.848,263.507 130.247,263.814 129.857 C 264.121 129.466,264.503 128.564,264.663 127.851 C 264.822 127.139,265.198 126.130,265.498 125.609 C 265.798 125.088,266.135 124.215,266.248 123.667 C 266.361 123.120,266.675 122.353,266.947 121.962 C 267.219 121.571,267.528 120.773,267.634 120.189 C 267.741 119.604,268.070 118.587,268.365 117.927 C 269.191 116.082,268.844 115.974,264.534 116.736 " stroke="none" fill="#cc545c" fill-rule="evenodd"></path><path id="path4" d="M267.377 79.615 C 264.472 79.731,261.452 80.011,260.391 80.264 C 259.363 80.508,257.252 80.840,255.700 81.001 C 254.148 81.162,252.175 81.539,251.315 81.839 C 250.455 82.140,249.048 82.476,248.188 82.587 C 247.328 82.698,246.240 83.020,245.771 83.304 C 245.302 83.587,244.407 83.909,243.781 84.020 C 243.156 84.131,242.068 84.512,241.365 84.868 C 240.661 85.223,239.638 85.725,239.090 85.984 C 237.570 86.702,236.434 87.279,235.963 87.574 C 235.729 87.721,235.025 88.116,234.399 88.453 C 233.774 88.790,233.095 89.303,232.891 89.593 C 232.686 89.883,232.387 90.121,232.225 90.121 C 231.208 90.121,226.276 94.721,212.893 108.149 C 205.712 115.355,197.155 123.939,193.877 127.225 C 190.599 130.511,187.918 133.305,187.918 133.434 C 187.918 133.563,187.630 133.904,187.278 134.192 C 186.817 134.569,186.724 134.802,186.946 135.028 C 187.276 135.364,188.202 135.143,188.202 134.728 C 188.202 134.591,188.647 134.292,189.190 134.065 C 189.734 133.838,190.342 133.509,190.541 133.334 C 190.993 132.936,193.625 131.223,195.566 130.064 C 196.090 129.751,196.872 129.208,197.305 128.856 C 197.738 128.504,198.216 128.216,198.367 128.216 C 198.519 128.216,199.125 127.832,199.716 127.363 C 200.306 126.894,200.956 126.510,201.160 126.510 C 201.364 126.510,201.699 126.273,201.903 125.983 C 202.107 125.692,202.594 125.358,202.985 125.239 C 203.376 125.121,203.952 124.795,204.264 124.515 C 204.577 124.235,205.310 123.810,205.893 123.570 C 206.476 123.330,207.115 122.991,207.314 122.817 C 207.718 122.463,209.023 121.736,210.945 120.794 C 211.649 120.450,212.353 120.010,212.509 119.817 C 212.665 119.624,213.257 119.319,213.825 119.139 C 214.392 118.960,215.072 118.575,215.336 118.283 C 215.600 117.992,216.237 117.674,216.753 117.578 C 217.268 117.481,217.908 117.161,218.174 116.867 C 218.441 116.573,219.075 116.254,219.584 116.158 C 220.093 116.063,220.941 115.666,221.469 115.277 C 221.996 114.888,222.634 114.570,222.886 114.570 C 223.138 114.570,223.777 114.250,224.307 113.859 C 224.837 113.468,225.469 113.148,225.713 113.147 C 225.956 113.147,226.923 112.764,227.861 112.296 C 228.799 111.828,229.773 111.444,230.026 111.444 C 230.278 111.443,230.804 111.192,231.195 110.884 C 231.585 110.577,232.443 110.205,233.101 110.057 C 233.759 109.909,234.515 109.592,234.780 109.352 C 235.045 109.113,235.895 108.774,236.669 108.601 C 237.443 108.427,238.480 108.036,238.973 107.732 C 239.465 107.427,240.173 107.178,240.545 107.177 C 240.918 107.177,241.990 106.793,242.928 106.326 C 243.866 105.858,244.959 105.474,245.356 105.474 C 245.753 105.473,246.584 105.209,247.204 104.887 C 247.823 104.564,249.086 104.174,250.010 104.020 C 250.934 103.866,252.225 103.496,252.878 103.198 C 253.532 102.900,254.823 102.532,255.747 102.379 C 256.671 102.226,258.003 101.894,258.706 101.640 C 259.410 101.386,261.009 101.053,262.260 100.900 C 263.511 100.746,265.110 100.435,265.814 100.208 C 266.517 99.981,268.608 99.664,270.460 99.503 C 274.958 99.113,276.488 98.482,276.926 96.839 C 277.098 96.193,277.411 95.471,277.622 95.234 C 277.833 94.996,278.140 94.207,278.303 93.479 C 278.466 92.751,278.921 91.550,279.314 90.811 C 279.707 90.072,280.028 89.145,280.028 88.750 C 280.028 88.356,280.229 87.811,280.475 87.540 C 280.721 87.269,281.115 86.299,281.353 85.385 C 281.590 84.472,281.957 83.530,282.169 83.294 C 282.849 82.534,283.145 80.566,282.679 79.902 C 282.221 79.247,278.361 79.175,267.377 79.615 M282.300 80.025 C 282.724 80.536,282.467 82.239,281.894 82.715 C 281.677 82.895,281.342 83.707,281.149 84.520 C 280.956 85.333,280.561 86.444,280.271 86.989 C 279.981 87.534,279.744 88.317,279.744 88.728 C 279.744 89.139,279.475 89.818,279.145 90.237 C 278.816 90.655,278.357 91.728,278.126 92.620 C 277.894 93.513,277.531 94.437,277.319 94.674 C 277.107 94.911,276.810 95.656,276.659 96.331 C 276.507 97.005,276.340 97.596,276.287 97.643 C 275.723 98.150,270.860 99.184,268.486 99.302 C 266.528 99.399,265.306 99.604,264.648 99.946 C 264.066 100.248,262.587 100.541,260.932 100.682 C 259.114 100.837,257.863 101.099,257.237 101.456 C 256.716 101.752,255.522 102.078,254.584 102.180 C 253.646 102.282,252.405 102.611,251.826 102.912 C 251.247 103.213,250.095 103.543,249.267 103.645 C 248.439 103.748,247.362 104.059,246.874 104.337 C 246.386 104.614,245.426 104.931,244.742 105.041 C 244.057 105.151,243.049 105.534,242.502 105.892 C 241.955 106.251,240.897 106.621,240.151 106.714 C 239.406 106.808,238.446 107.131,238.019 107.431 C 237.592 107.732,236.731 108.065,236.105 108.171 C 235.480 108.277,234.584 108.597,234.115 108.882 C 233.646 109.167,232.687 109.553,231.983 109.739 C 231.279 109.925,230.475 110.320,230.195 110.618 C 229.915 110.915,229.314 111.158,228.859 111.158 C 228.371 111.158,227.718 111.450,227.265 111.869 C 226.769 112.329,226.167 112.580,225.559 112.580 C 224.952 112.580,224.350 112.831,223.854 113.291 C 223.432 113.682,222.818 114.004,222.489 114.007 C 222.160 114.009,221.328 114.393,220.640 114.859 C 219.951 115.326,219.169 115.707,218.901 115.707 C 218.633 115.707,218.082 115.968,217.678 116.286 C 217.273 116.604,216.520 117.008,216.005 117.184 C 215.489 117.360,214.762 117.739,214.390 118.027 C 214.017 118.315,213.547 118.550,213.345 118.550 C 213.144 118.550,212.617 118.852,212.175 119.222 C 211.733 119.591,211.052 119.990,210.661 120.107 C 210.270 120.224,209.630 120.612,209.240 120.969 C 208.849 121.325,208.122 121.703,207.624 121.808 C 207.127 121.912,206.562 122.189,206.368 122.423 C 206.174 122.656,205.621 123.037,205.140 123.268 C 203.206 124.196,201.921 124.979,201.331 125.586 C 200.990 125.938,200.466 126.226,200.166 126.226 C 199.867 126.226,199.323 126.481,198.958 126.793 C 197.923 127.677,196.221 128.752,195.145 129.202 C 194.605 129.427,194.088 129.810,193.995 130.051 C 193.822 130.503,192.182 130.689,192.182 130.256 C 192.182 130.128,193.749 128.474,195.665 126.581 C 197.580 124.689,201.130 121.075,203.554 118.552 C 205.977 116.028,208.466 113.492,209.085 112.916 C 209.704 112.340,210.663 111.372,211.217 110.764 C 212.593 109.253,226.603 95.270,227.626 94.385 C 228.078 93.994,228.943 93.291,229.547 92.822 C 231.032 91.669,232.835 90.226,233.642 89.544 C 234.007 89.236,234.477 88.984,234.686 88.984 C 234.895 88.984,235.428 88.681,235.870 88.312 C 236.312 87.942,236.994 87.541,237.385 87.420 C 237.775 87.299,238.389 86.970,238.748 86.690 C 239.107 86.409,239.811 86.093,240.312 85.988 C 240.813 85.882,241.509 85.532,241.860 85.210 C 242.242 84.859,243.113 84.541,244.036 84.416 C 244.883 84.301,245.940 83.951,246.384 83.638 C 246.910 83.268,247.888 83.005,249.183 82.887 C 250.277 82.787,251.637 82.465,252.203 82.172 C 252.914 81.804,254.369 81.541,256.894 81.326 C 258.907 81.154,261.194 80.804,261.976 80.548 C 263.078 80.187,265.122 80.040,271.073 79.895 C 275.295 79.792,279.469 79.684,280.349 79.655 C 281.471 79.618,282.054 79.728,282.300 80.025 M265.387 115.706 C 263.824 115.813,262.033 116.049,261.407 116.230 C 260.782 116.412,258.401 116.746,256.117 116.973 C 253.832 117.200,251.466 117.580,250.857 117.817 C 250.249 118.055,248.697 118.377,247.408 118.534 C 246.119 118.690,244.656 119.029,244.158 119.287 C 243.659 119.544,242.298 119.874,241.132 120.018 C 239.966 120.163,238.614 120.488,238.127 120.741 C 237.641 120.993,236.360 121.368,235.282 121.574 C 234.203 121.780,233.116 122.133,232.865 122.358 C 232.614 122.583,231.578 122.917,230.561 123.099 C 229.545 123.281,228.522 123.600,228.287 123.808 C 228.053 124.016,227.111 124.324,226.195 124.491 C 225.279 124.659,224.112 125.054,223.603 125.369 C 223.093 125.684,222.423 125.942,222.113 125.942 C 221.802 125.942,220.960 126.255,220.241 126.637 C 219.522 127.019,218.479 127.418,217.922 127.522 C 217.366 127.626,216.609 127.948,216.241 128.238 C 215.874 128.527,215.051 128.881,214.413 129.025 C 213.775 129.168,212.909 129.556,212.488 129.888 C 212.066 130.219,211.437 130.490,211.089 130.490 C 210.741 130.490,210.004 130.797,209.452 131.172 C 208.900 131.547,208.056 131.939,207.578 132.044 C 207.099 132.149,206.409 132.470,206.045 132.757 C 205.680 133.044,204.836 133.425,204.169 133.605 C 203.502 133.785,202.885 134.116,202.799 134.340 C 202.713 134.565,202.112 134.889,201.463 135.061 C 200.815 135.233,200.028 135.602,199.716 135.880 C 199.403 136.158,198.792 136.470,198.358 136.573 C 197.924 136.675,197.335 136.993,197.049 137.280 C 196.763 137.566,196.167 137.891,195.725 138.001 C 195.283 138.112,194.551 138.515,194.098 138.896 C 193.646 139.276,193.074 139.588,192.827 139.588 C 192.580 139.588,191.958 139.908,191.446 140.299 C 190.933 140.689,190.387 141.009,190.233 141.009 C 190.078 141.009,189.590 141.300,189.148 141.655 C 188.706 142.010,187.864 142.520,187.278 142.788 C 186.692 143.055,186.212 143.394,186.212 143.541 C 186.212 143.688,185.780 143.951,185.251 144.125 C 184.723 144.299,184.063 144.693,183.786 145.000 C 183.508 145.307,183.103 145.558,182.885 145.558 C 182.668 145.558,182.180 145.868,181.801 146.247 C 181.423 146.625,180.821 147.024,180.464 147.132 C 180.107 147.240,179.559 147.562,179.247 147.846 C 178.934 148.130,178.326 148.496,177.896 148.659 C 177.466 148.822,177.114 149.137,177.114 149.358 C 177.114 149.579,176.816 149.836,176.451 149.927 C 175.814 150.087,174.205 151.180,172.980 152.284 C 172.661 152.572,172.053 152.965,171.630 153.157 C 171.206 153.349,170.860 153.634,170.860 153.791 C 170.860 153.947,170.380 154.320,169.794 154.619 C 169.208 154.919,168.484 155.433,168.186 155.762 C 167.888 156.092,167.469 156.361,167.253 156.361 C 167.038 156.361,166.787 156.558,166.694 156.798 C 166.602 157.038,166.158 157.425,165.708 157.658 C 165.258 157.891,164.890 158.270,164.890 158.501 C 164.890 158.731,164.726 158.920,164.527 158.920 C 164.083 158.920,161.815 160.622,159.971 162.339 C 159.220 163.038,158.222 163.930,157.753 164.321 C 155.860 165.897,154.371 167.381,154.371 167.690 C 154.371 167.870,154.229 168.017,154.054 168.017 C 153.748 168.017,148.556 172.937,146.495 175.179 C 146.308 175.383,145.988 175.707,145.785 175.898 C 145.156 176.491,144.710 176.934,143.623 178.048 C 140.779 180.963,138.420 183.327,137.423 184.262 C 136.815 184.832,136.162 185.472,135.971 185.684 C 135.780 185.896,135.491 186.198,135.329 186.354 C 133.453 188.167,130.490 191.389,130.490 191.618 C 130.490 191.780,130.182 192.029,129.804 192.173 C 129.426 192.316,129.038 192.683,128.942 192.988 C 128.845 193.293,128.505 193.610,128.186 193.694 C 127.866 193.777,127.536 194.111,127.451 194.435 C 127.366 194.760,127.196 195.025,127.072 195.025 C 126.802 195.025,122.814 198.875,122.814 199.135 C 122.814 199.235,122.463 199.622,122.033 199.996 C 121.389 200.557,121.307 200.767,121.567 201.191 C 122.023 201.932,145.281 201.949,148.685 201.211 C 150.015 200.923,152.957 200.683,156.503 200.575 C 162.665 200.386,167.880 199.944,168.631 199.546 C 168.891 199.409,170.234 199.228,171.616 199.145 C 175.706 198.899,179.774 198.363,180.384 197.991 C 180.697 197.801,182.168 197.556,183.653 197.448 C 185.139 197.340,187.078 197.009,187.964 196.712 C 188.849 196.416,190.320 196.098,191.233 196.007 C 193.344 195.795,195.643 195.308,196.053 194.985 C 196.227 194.847,197.288 194.619,198.410 194.478 C 199.531 194.338,200.775 194.009,201.173 193.748 C 201.571 193.487,202.750 193.143,203.791 192.984 C 204.833 192.825,206.070 192.465,206.539 192.184 C 207.008 191.903,207.967 191.584,208.671 191.474 C 209.375 191.365,210.376 191.030,210.897 190.730 C 211.418 190.430,212.439 190.051,213.167 189.888 C 213.894 189.725,214.707 189.395,214.972 189.155 C 215.236 188.915,215.992 188.598,216.650 188.450 C 217.308 188.302,218.155 187.939,218.532 187.643 C 218.908 187.346,219.626 187.017,220.127 186.911 C 220.628 186.806,221.294 186.493,221.606 186.216 C 221.919 185.940,222.644 185.563,223.218 185.379 C 223.792 185.196,224.415 184.861,224.602 184.635 C 224.790 184.409,225.438 184.076,226.042 183.895 C 226.646 183.714,227.355 183.330,227.616 183.041 C 227.877 182.752,228.245 182.516,228.434 182.516 C 228.623 182.516,229.260 182.132,229.851 181.663 C 230.441 181.194,231.102 180.810,231.320 180.810 C 231.538 180.810,231.792 180.614,231.884 180.373 C 231.976 180.133,232.452 179.731,232.941 179.481 C 233.698 179.093,235.348 177.799,237.811 175.660 C 238.124 175.388,239.172 174.421,240.141 173.510 C 241.109 172.600,242.069 171.701,242.273 171.513 C 242.477 171.325,242.798 171.005,242.986 170.803 C 243.174 170.600,243.493 170.275,243.696 170.080 C 244.960 168.870,248.468 164.238,248.651 163.539 C 248.743 163.188,248.930 162.900,249.068 162.900 C 249.314 162.900,250.469 161.311,251.324 159.796 C 251.564 159.371,252.035 158.674,252.371 158.248 C 252.707 157.821,253.062 157.104,253.160 156.656 C 253.259 156.207,253.508 155.775,253.714 155.696 C 253.921 155.617,254.290 154.963,254.535 154.243 C 254.781 153.523,255.244 152.601,255.565 152.193 C 255.885 151.785,256.148 151.289,256.148 151.090 C 256.148 150.746,256.965 148.937,258.152 146.652 C 258.449 146.080,258.825 145.016,258.989 144.287 C 259.152 143.558,259.527 142.618,259.822 142.199 C 260.118 141.779,260.446 140.924,260.552 140.299 C 260.658 139.673,260.935 138.949,261.167 138.690 C 261.399 138.431,261.784 137.472,262.021 136.558 C 262.258 135.644,262.625 134.703,262.837 134.466 C 263.049 134.229,263.356 133.440,263.519 132.712 C 263.682 131.984,264.061 130.963,264.361 130.442 C 264.661 129.921,264.998 129.048,265.111 128.500 C 265.224 127.953,265.545 127.181,265.825 126.785 C 266.105 126.389,266.420 125.557,266.527 124.937 C 266.633 124.317,266.964 123.462,267.263 123.038 C 267.561 122.614,267.947 121.591,268.121 120.764 C 268.294 119.937,268.600 119.069,268.799 118.834 C 269.705 117.769,269.401 115.204,268.399 115.467 C 268.306 115.492,266.951 115.599,265.387 115.706 M268.763 116.502 C 268.839 116.626,268.661 117.267,268.365 117.927 C 268.070 118.587,267.741 119.604,267.634 120.189 C 267.528 120.773,267.219 121.571,266.947 121.962 C 266.675 122.353,266.361 123.120,266.248 123.667 C 266.135 124.215,265.798 125.088,265.498 125.609 C 265.198 126.130,264.822 127.139,264.663 127.851 C 264.503 128.564,264.121 129.466,263.814 129.857 C 263.507 130.247,263.255 130.848,263.255 131.191 C 263.255 131.535,262.944 132.430,262.563 133.182 C 262.183 133.933,261.724 135.164,261.543 135.917 C 261.363 136.669,261.046 137.426,260.839 137.598 C 260.632 137.770,260.307 138.575,260.118 139.389 C 259.929 140.202,259.534 141.266,259.240 141.754 C 258.947 142.241,258.706 142.881,258.705 143.175 C 258.705 143.469,258.321 144.478,257.854 145.416 C 257.386 146.354,257.002 147.328,257.002 147.581 C 257.001 147.833,256.757 148.349,256.460 148.728 C 256.162 149.106,255.771 149.962,255.592 150.629 C 255.412 151.296,255.081 151.912,254.857 151.998 C 254.632 152.085,254.307 152.686,254.135 153.334 C 253.963 153.983,253.593 154.769,253.312 155.082 C 253.031 155.394,252.708 155.970,252.594 156.361 C 252.480 156.752,252.154 157.328,251.870 157.640 C 251.585 157.953,251.213 158.529,251.042 158.920 C 250.871 159.311,250.419 160.078,250.037 160.625 C 249.655 161.173,249.050 162.044,248.694 162.561 C 248.337 163.079,247.662 163.999,247.193 164.606 C 246.724 165.212,246.020 166.176,245.629 166.747 C 244.743 168.041,239.059 173.911,237.527 175.114 C 235.285 176.874,234.952 177.134,233.777 178.042 C 233.122 178.548,232.162 179.254,231.645 179.611 C 231.127 179.967,230.256 180.569,229.709 180.949 C 229.161 181.328,228.330 181.816,227.861 182.033 C 227.392 182.250,226.839 182.631,226.633 182.880 C 226.427 183.129,225.851 183.418,225.353 183.523 C 224.856 183.629,224.193 183.941,223.881 184.217 C 223.568 184.494,222.843 184.871,222.269 185.054 C 221.695 185.238,221.074 185.570,220.890 185.792 C 220.705 186.015,220.118 186.279,219.585 186.379 C 219.052 186.478,218.323 186.791,217.966 187.072 C 217.608 187.354,216.596 187.793,215.718 188.048 C 214.839 188.304,213.974 188.689,213.796 188.904 C 213.617 189.119,212.946 189.383,212.304 189.492 C 211.661 189.600,210.562 189.994,209.861 190.367 C 209.160 190.740,208.185 191.045,207.694 191.045 C 207.203 191.045,206.294 191.309,205.675 191.631 C 205.055 191.953,203.781 192.343,202.843 192.497 C 201.905 192.651,200.675 193.016,200.111 193.307 C 199.547 193.598,198.332 193.927,197.410 194.038 C 196.489 194.149,195.032 194.478,194.172 194.770 C 193.312 195.063,191.457 195.422,190.050 195.569 C 188.643 195.717,187.037 196.029,186.483 196.264 C 185.928 196.498,183.610 196.885,181.332 197.123 C 179.054 197.362,176.757 197.743,176.228 197.972 C 175.628 198.230,173.304 198.510,170.047 198.715 C 167.176 198.895,164.548 199.149,164.206 199.279 C 163.098 199.700,157.510 200.108,150.414 200.285 C 146.026 200.394,143.254 200.578,142.880 200.785 C 142.236 201.142,123.211 201.492,122.355 201.164 C 121.936 201.003,121.950 200.914,122.490 200.349 C 131.554 190.866,157.571 165.165,160.625 162.678 C 162.736 160.958,164.823 159.218,165.263 158.809 C 165.703 158.401,166.160 158.067,166.280 158.067 C 166.399 158.067,166.797 157.747,167.164 157.356 C 167.531 156.965,167.945 156.645,168.083 156.645 C 168.312 156.645,168.901 156.221,171.628 154.088 C 173.557 152.579,173.868 152.346,174.589 151.874 C 176.858 150.385,177.587 149.854,177.935 149.435 C 178.148 149.179,178.465 148.967,178.642 148.964 C 178.998 148.959,181.153 147.578,182.185 146.695 C 182.550 146.382,183.012 146.127,183.212 146.127 C 183.412 146.127,184.058 145.743,184.648 145.274 C 185.238 144.805,185.876 144.421,186.065 144.421 C 186.253 144.421,186.640 144.165,186.923 143.852 C 187.206 143.539,187.599 143.284,187.798 143.284 C 187.996 143.284,188.521 142.978,188.964 142.605 C 189.408 142.232,190.217 141.712,190.763 141.450 C 191.309 141.187,192.523 140.539,193.461 140.009 C 194.399 139.479,195.551 138.858,196.020 138.629 C 196.489 138.400,197.930 137.627,199.222 136.910 C 200.514 136.194,201.737 135.608,201.939 135.608 C 202.141 135.608,202.730 135.295,203.249 134.912 C 203.768 134.529,204.574 134.132,205.041 134.030 C 205.507 133.927,206.341 133.537,206.893 133.162 C 207.446 132.787,208.074 132.480,208.290 132.480 C 208.505 132.480,209.401 132.097,210.280 131.628 C 211.159 131.158,212.096 130.775,212.363 130.775 C 212.629 130.775,213.070 130.528,213.343 130.227 C 213.616 129.925,214.371 129.589,215.022 129.480 C 215.672 129.370,216.506 129.044,216.873 128.756 C 217.241 128.467,218.008 128.149,218.579 128.050 C 219.149 127.950,220.132 127.574,220.762 127.214 C 221.392 126.854,222.416 126.469,223.036 126.358 C 223.657 126.247,224.549 125.930,225.018 125.654 C 225.487 125.377,226.546 125.010,227.371 124.837 C 228.197 124.664,229.156 124.340,229.503 124.117 C 229.851 123.894,230.775 123.624,231.557 123.517 C 232.338 123.409,233.490 123.033,234.115 122.681 C 234.745 122.326,235.991 121.968,236.909 121.877 C 237.820 121.787,238.875 121.511,239.254 121.263 C 239.632 121.015,240.997 120.672,242.288 120.500 C 243.578 120.328,245.095 119.954,245.658 119.669 C 246.221 119.383,247.692 119.062,248.927 118.954 C 250.162 118.846,251.940 118.513,252.878 118.213 C 253.900 117.887,256.124 117.562,258.422 117.403 C 260.533 117.258,263.284 116.957,264.534 116.736 C 267.206 116.264,268.569 116.188,268.763 116.502 M191.781 131.839 C 191.475 132.145,191.313 131.717,191.527 131.171 C 191.729 130.658,191.744 130.658,191.843 131.152 C 191.901 131.438,191.873 131.747,191.781 131.839 " stroke="none" fill="#e8888c" fill-rule="evenodd"></path></g></svg>